<svg xmlns="http://www.w3.org/2000/svg" xmlns:xlink="http://www.w3.org/1999/xlink" width="278" zoomAndPan="magnify" viewBox="0 0 208.5 36.000001" height="48" preserveAspectRatio="xMidYMid meet" version="1.0"><defs><g/><clipPath id="f4a4b0b9b4"><path d="M 2.574219 0 L 205.4375 0 L 205.4375 35.027344 L 2.574219 35.027344 Z M 2.574219 0 " clip-rule="nonzero"/></clipPath><clipPath id="09356e4430"><path d="M 190 8 L 205.4375 8 L 205.4375 27 L 190 27 Z M 190 8 " clip-rule="nonzero"/></clipPath><clipPath id="d0e6be0aea"><path d="M 89.285156 11.003906 L 104.644531 11.003906 L 104.644531 27 L 89.285156 27 Z M 89.285156 11.003906 " clip-rule="nonzero"/></clipPath><clipPath id="2087b200ee"><path d="M 89.285156 12 L 104.644531 12 L 104.644531 27 L 89.285156 27 Z M 89.285156 12 " clip-rule="nonzero"/></clipPath></defs><g clip-path="url(#f4a4b0b9b4)"><path fill="#ffffff" d="M 2.574219 0 L 205.925781 0 L 205.925781 42.425781 L 2.574219 42.425781 Z M 2.574219 0 " fill-opacity="1" fill-rule="nonzero"/><path fill="#ffffff" d="M 2.574219 0 L 205.925781 0 L 205.925781 35.109375 L 2.574219 35.109375 Z M 2.574219 0 " fill-opacity="1" fill-rule="nonzero"/><path fill="#ffffff" d="M 2.574219 0 L 205.925781 0 L 205.925781 35.109375 L 2.574219 35.109375 Z M 2.574219 0 " fill-opacity="1" fill-rule="nonzero"/></g><g fill="#0d0d0d" fill-opacity="1"><g transform="translate(2.0084, 26.763459)"><g><path d="M 2.296875 -18.265625 L 7.984375 -18.265625 C 10.554688 -18.265625 12.429688 -17.894531 13.609375 -17.15625 C 14.796875 -16.414062 15.390625 -15.242188 15.390625 -13.640625 C 15.390625 -12.554688 15.128906 -11.660156 14.609375 -10.953125 C 14.085938 -10.242188 13.410156 -9.828125 12.578125 -9.703125 L 12.578125 -9.578125 C 13.710938 -9.328125 14.539062 -8.847656 15.0625 -8.140625 C 15.582031 -7.429688 15.84375 -6.484375 15.84375 -5.296875 C 15.84375 -3.628906 15.242188 -2.328125 14.046875 -1.390625 C 12.847656 -0.460938 11.210938 0 9.140625 0 L 2.296875 0 Z M 6.171875 -15.09375 L 6.171875 -11.03125 L 8.421875 -11.03125 C 9.484375 -11.03125 10.242188 -11.191406 10.703125 -11.515625 C 11.171875 -11.847656 11.40625 -12.375 11.40625 -13.09375 C 11.40625 -13.8125 11.148438 -14.320312 10.640625 -14.625 C 10.140625 -14.9375 9.328125 -15.09375 8.203125 -15.09375 Z M 6.171875 -7.953125 L 6.171875 -3.203125 L 8.703125 -3.203125 C 9.765625 -3.203125 10.550781 -3.40625 11.0625 -3.8125 C 11.570312 -4.21875 11.828125 -4.84375 11.828125 -5.6875 C 11.828125 -7.195312 10.742188 -7.953125 8.578125 -7.953125 Z M 6.171875 -7.953125 "/></g></g></g><g fill="#0d0d0d" fill-opacity="1"><g transform="translate(19.253124, 26.763459)"><g><path d="M 2.296875 -18.265625 L 7.625 -18.265625 C 10.09375 -18.265625 11.925781 -17.816406 13.125 -16.921875 C 14.320312 -16.023438 14.921875 -14.648438 14.921875 -12.796875 C 14.921875 -11.722656 14.625 -10.765625 14.03125 -9.921875 C 13.4375 -9.085938 12.597656 -8.429688 11.515625 -7.953125 C 14.453125 -3.578125 16.242188 -0.925781 16.890625 0 L 12.59375 0 L 8.234375 -7.015625 L 6.171875 -7.015625 L 6.171875 0 L 2.296875 0 Z M 6.171875 -15.09375 L 6.171875 -10.15625 L 7.421875 -10.15625 C 8.648438 -10.15625 9.554688 -10.359375 10.140625 -10.765625 C 10.722656 -11.179688 11.015625 -11.820312 11.015625 -12.6875 C 11.015625 -13.550781 10.71875 -14.164062 10.125 -14.53125 C 9.539062 -14.90625 8.613281 -15.09375 7.34375 -15.09375 Z M 6.171875 -15.09375 "/></g></g></g><g fill="#0d0d0d" fill-opacity="1"><g transform="translate(36.197962, 26.763459)"><g><path d="M 12.828125 -15.09375 L 6.171875 -15.09375 L 6.171875 -11.078125 L 12.34375 -11.078125 L 12.34375 -7.90625 L 6.171875 -7.90625 L 6.171875 -3.203125 L 12.828125 -3.203125 L 12.828125 0 L 2.296875 0 L 2.296875 -18.265625 L 12.828125 -18.265625 Z M 12.828125 -15.09375 "/></g></g></g><g fill="#0d0d0d" fill-opacity="1"><g transform="translate(50.581269, 26.763459)"><g><path d="M 17.65625 0 L 13.484375 0 L 12.140625 -4.34375 L 5.5 -4.34375 L 4.171875 0 L 0 0 L 6.453125 -18.34375 L 11.1875 -18.34375 Z M 11.234375 -7.59375 L 9.15625 -14.28125 C 9 -14.832031 8.890625 -15.242188 8.828125 -15.515625 C 8.554688 -14.453125 7.769531 -11.8125 6.46875 -7.59375 Z M 11.234375 -7.59375 "/></g></g></g><g fill="#0d0d0d" fill-opacity="1"><g transform="translate(68.288326, 26.763459)"><g><path d="M 2.296875 -18.265625 L 8.03125 -18.265625 C 11.019531 -18.265625 13.335938 -17.476562 14.984375 -15.90625 C 16.628906 -14.332031 17.453125 -12.132812 17.453125 -9.3125 C 17.453125 -6.300781 16.597656 -3.992188 14.890625 -2.390625 C 13.179688 -0.796875 10.707031 0 7.46875 0 L 2.296875 0 Z M 6.171875 -15.09375 L 6.171875 -3.203125 L 7.828125 -3.203125 C 11.566406 -3.203125 13.4375 -5.203125 13.4375 -9.203125 C 13.4375 -13.128906 11.703125 -15.09375 8.234375 -15.09375 Z M 6.171875 -15.09375 "/></g></g></g><g fill="#0d0d0d" fill-opacity="1"><g transform="translate(87.271499, 26.763459)"><g/></g></g><g fill="#0d0d0d" fill-opacity="1"><g transform="translate(93.970196, 26.763459)"><g/></g></g><g fill="#0d0d0d" fill-opacity="1"><g transform="translate(100.668893, 26.763459)"><g/></g></g><g fill="#0d0d0d" fill-opacity="1"><g transform="translate(107.364331, 26.763459)"><g><path d="M 2.296875 -18.265625 L 7.984375 -18.265625 C 10.554688 -18.265625 12.429688 -17.894531 13.609375 -17.15625 C 14.796875 -16.414062 15.390625 -15.242188 15.390625 -13.640625 C 15.390625 -12.554688 15.128906 -11.660156 14.609375 -10.953125 C 14.085938 -10.242188 13.410156 -9.828125 12.578125 -9.703125 L 12.578125 -9.578125 C 13.710938 -9.328125 14.539062 -8.847656 15.0625 -8.140625 C 15.582031 -7.429688 15.84375 -6.484375 15.84375 -5.296875 C 15.84375 -3.628906 15.242188 -2.328125 14.046875 -1.390625 C 12.847656 -0.460938 11.210938 0 9.140625 0 L 2.296875 0 Z M 6.171875 -15.09375 L 6.171875 -11.03125 L 8.421875 -11.03125 C 9.484375 -11.03125 10.242188 -11.191406 10.703125 -11.515625 C 11.171875 -11.847656 11.40625 -12.375 11.40625 -13.09375 C 11.40625 -13.8125 11.148438 -14.320312 10.640625 -14.625 C 10.140625 -14.9375 9.328125 -15.09375 8.203125 -15.09375 Z M 6.171875 -7.953125 L 6.171875 -3.203125 L 8.703125 -3.203125 C 9.765625 -3.203125 10.550781 -3.40625 11.0625 -3.8125 C 11.570312 -4.21875 11.828125 -4.84375 11.828125 -5.6875 C 11.828125 -7.195312 10.742188 -7.953125 8.578125 -7.953125 Z M 6.171875 -7.953125 "/></g></g></g><g fill="#0d0d0d" fill-opacity="1"><g transform="translate(124.609056, 26.763459)"><g><path d="M 17.171875 -18.265625 L 17.171875 -6.453125 C 17.171875 -6.421875 17.171875 -6.394531 17.171875 -6.375 C 17.171875 -4.375 16.492188 -2.769531 15.140625 -1.5625 C 13.796875 -0.351562 11.992188 0.25 9.734375 0.25 C 9.691406 0.25 9.644531 0.25 9.59375 0.25 C 7.25 0.25 5.425781 -0.351562 4.125 -1.5625 C 2.820312 -2.769531 2.171875 -4.414062 2.171875 -6.5 L 2.171875 -18.265625 L 6.03125 -18.265625 L 6.03125 -7.078125 C 6.03125 -5.671875 6.316406 -4.640625 6.890625 -3.984375 C 7.472656 -3.328125 8.398438 -3 9.671875 -3 C 10.941406 -3 11.863281 -3.328125 12.4375 -3.984375 C 13.019531 -4.640625 13.3125 -5.679688 13.3125 -7.109375 L 13.3125 -18.265625 Z M 17.171875 -18.265625 "/></g></g></g><g fill="#0d0d0d" fill-opacity="1"><g transform="translate(144.002971, 26.763459)"><g><path d="M 14.3125 -15.046875 L 9.34375 -15.046875 L 9.34375 0 L 5.46875 0 L 5.46875 -15.046875 L 0.515625 -15.046875 L 0.515625 -18.265625 L 14.3125 -18.265625 Z M 14.3125 -15.046875 "/></g></g></g><g fill="#0d0d0d" fill-opacity="1"><g transform="translate(158.873588, 26.763459)"><g><path d="M 14.3125 -15.046875 L 9.34375 -15.046875 L 9.34375 0 L 5.46875 0 L 5.46875 -15.046875 L 0.515625 -15.046875 L 0.515625 -18.265625 L 14.3125 -18.265625 Z M 14.3125 -15.046875 "/></g></g></g><g fill="#0d0d0d" fill-opacity="1"><g transform="translate(173.744208, 26.763459)"><g><path d="M 12.828125 -15.09375 L 6.171875 -15.09375 L 6.171875 -11.078125 L 12.34375 -11.078125 L 12.34375 -7.90625 L 6.171875 -7.90625 L 6.171875 -3.203125 L 12.828125 -3.203125 L 12.828125 0 L 2.296875 0 L 2.296875 -18.265625 L 12.828125 -18.265625 Z M 12.828125 -15.09375 "/></g></g></g><g clip-path="url(#09356e4430)"><g fill="#0d0d0d" fill-opacity="1"><g transform="translate(188.127518, 26.763459)"><g><path d="M 2.296875 -18.265625 L 7.625 -18.265625 C 10.09375 -18.265625 11.925781 -17.816406 13.125 -16.921875 C 14.320312 -16.023438 14.921875 -14.648438 14.921875 -12.796875 C 14.921875 -11.722656 14.625 -10.765625 14.03125 -9.921875 C 13.4375 -9.085938 12.597656 -8.429688 11.515625 -7.953125 C 14.453125 -3.578125 16.242188 -0.925781 16.890625 0 L 12.59375 0 L 8.234375 -7.015625 L 6.171875 -7.015625 L 6.171875 0 L 2.296875 0 Z M 6.171875 -15.09375 L 6.171875 -10.15625 L 7.421875 -10.15625 C 8.648438 -10.15625 9.554688 -10.359375 10.140625 -10.765625 C 10.722656 -11.179688 11.015625 -11.820312 11.015625 -12.6875 C 11.015625 -13.550781 10.71875 -14.164062 10.125 -14.53125 C 9.539062 -14.90625 8.613281 -15.09375 7.34375 -15.09375 Z M 6.171875 -15.09375 "/></g></g></g></g><g clip-path="url(#d0e6be0aea)"><path fill="#000000" d="M 23.441406 8.453125 L 23.441406 26.605469 L 27.59375 26.605469 L 27.59375 19.472656 L 34.148438 19.472656 L 34.148438 15.96875 L 27.519531 15.96875 L 27.519531 11.960938 L 35.277344 11.960938 L 35.277344 8.453125 Z M 129.964844 26.605469 L 134.046875 26.605469 L 134.046875 8.453125 L 129.964844 8.453125 Z M 141.5625 8.453125 L 148.5 19.929688 L 148.5 8.453125 L 152.390625 8.453125 L 152.390625 26.605469 L 148.574219 26.605469 L 141.394531 15.128906 L 141.394531 26.605469 L 137.503906 26.605469 L 137.503906 8.453125 Z M 155.34375 8.453125 L 155.34375 26.605469 L 167.492188 26.605469 L 167.492188 23.097656 L 159.425781 23.097656 L 159.425781 19.019531 L 166.074219 19.019531 L 166.074219 15.777344 L 159.425781 15.777344 L 159.425781 11.960938 L 167.203125 11.960938 L 167.203125 8.453125 Z M 44.519531 11.597656 C 47.160156 11.597656 48.457031 13.929688 48.457031 17.53125 C 48.457031 21.128906 47.160156 23.460938 44.519531 23.460938 C 41.878906 23.460938 40.582031 21.128906 40.582031 17.53125 C 40.558594 13.929688 41.878906 11.597656 44.519531 11.597656 M 36.355469 17.53125 C 36.355469 22.667969 38.757812 26.964844 44.519531 26.964844 C 50.257812 26.964844 52.683594 22.667969 52.683594 17.53125 C 52.683594 12.390625 50.28125 8.09375 44.519531 8.09375 C 38.78125 8.09375 36.355469 12.390625 36.355469 17.53125 M 76.523438 11.960938 L 77.410156 11.960938 C 81.15625 11.960938 82.789062 13.375 82.789062 17.53125 C 82.789062 21.683594 81.15625 23.097656 77.410156 23.097656 L 76.523438 23.097656 C 76.523438 23.097656 76.523438 11.960938 76.523438 11.960938 Z M 72.441406 26.605469 L 76.957031 26.605469 C 83.125 26.605469 86.917969 23.988281 86.917969 17.53125 C 86.917969 11.070312 83.125 8.453125 76.957031 8.453125 L 72.441406 8.453125 C 72.441406 8.453125 72.441406 26.605469 72.441406 26.605469 Z M 108.359375 8.453125 L 111.335938 20.652344 L 114.839844 8.453125 L 117.984375 8.453125 L 121.371094 20.652344 L 124.253906 8.453125 L 128.140625 8.453125 L 123.269531 26.605469 L 119.785156 26.605469 L 116.257812 15.25 L 112.753906 26.628906 L 109.125 26.628906 L 104.375 8.476562 L 108.359375 8.476562 Z M 62.527344 11.597656 C 65.167969 11.597656 66.464844 13.929688 66.464844 17.53125 C 66.464844 21.128906 65.167969 23.460938 62.527344 23.460938 C 59.886719 23.460938 58.589844 21.128906 58.589844 17.53125 C 58.589844 13.929688 59.886719 11.597656 62.527344 11.597656 M 54.386719 17.53125 C 54.386719 22.667969 56.789062 26.964844 62.550781 26.964844 C 68.289062 26.964844 70.714844 22.667969 70.714844 17.53125 C 70.714844 12.390625 68.3125 8.09375 62.550781 8.09375 C 56.789062 8.09375 54.386719 12.390625 54.386719 17.53125 " fill-opacity="0.949" fill-rule="nonzero"/></g><g clip-path="url(#2087b200ee)"><path fill="#000000" d="M 95.285156 25.890625 C 96.871094 25.890625 98.070312 25.144531 98.574219 24.640625 C 97.515625 23.753906 95.691406 21.976562 95.210938 21.449219 C 94.734375 20.917969 93.53125 19.597656 93.101562 18.976562 C 92.308594 19.527344 91.613281 20.464844 91.613281 21.953125 C 91.636719 24.304688 93.269531 25.890625 95.285156 25.890625 M 94.660156 26.96875 C 91.035156 26.96875 89.785156 24.472656 89.785156 22.839844 C 89.785156 20.65625 91.441406 19.070312 92.738281 18.375 C 91.996094 17.367188 91.828125 16.597656 91.804688 15.757812 C 91.804688 14.292969 93.195312 12.324219 96.078125 12.324219 C 97.011719 12.324219 97.828125 12.515625 98.332031 12.757812 C 98.597656 12.875 98.621094 12.996094 98.621094 13.238281 C 98.621094 13.835938 98.5 15.230469 98.453125 15.515625 C 98.40625 15.804688 98.332031 15.828125 98.238281 15.828125 C 98.140625 15.828125 98.117188 15.757812 98.117188 15.46875 C 98.117188 14.988281 97.996094 14.363281 97.566406 13.886719 C 97.179688 13.453125 96.53125 13.042969 95.597656 13.042969 C 94.636719 13.042969 93.410156 13.667969 93.410156 15.324219 C 93.410156 16.933594 94.707031 18.277344 96.4375 20.175781 C 97.0625 20.894531 99.367188 22.984375 99.847656 23.417969 C 100.300781 22.792969 100.757812 21.566406 100.757812 20.4375 C 100.757812 20.152344 100.6875 19.816406 100.398438 19.550781 C 100.160156 19.3125 99.773438 19.261719 99.484375 19.261719 C 99.367188 19.261719 99.269531 19.214844 99.269531 19.117188 C 99.269531 19 99.414062 18.949219 99.558594 18.949219 C 100.015625 18.949219 100.757812 18.976562 101.792969 19.070312 C 102.101562 19.117188 102.269531 19.238281 102.269531 19.453125 C 102.269531 20.917969 101.382812 22.742188 100.421875 23.871094 C 101.671875 24.90625 102.488281 25.410156 103.015625 25.722656 C 103.617188 26.082031 104.601562 26.417969 105.128906 26.417969 C 105.296875 26.417969 105.390625 26.441406 105.390625 26.5625 C 105.390625 26.65625 105.25 26.707031 104.960938 26.707031 L 103.328125 26.707031 C 101.574219 26.707031 101.023438 26.539062 99.175781 25.097656 C 98.671875 25.601562 97.300781 26.96875 94.660156 26.96875 " fill-opacity="0.949" fill-rule="nonzero"/></g></svg>