<svg xmlns="http://www.w3.org/2000/svg" xmlns:xlink="http://www.w3.org/1999/xlink" width="200" zoomAndPan="magnify" viewBox="0 0 150 149.999998" height="200" preserveAspectRatio="xMidYMid meet" version="1.0"><defs><clipPath id="108f778eed"><path d="M 17.160156 17.160156 L 132.660156 17.160156 L 132.660156 132.660156 L 17.160156 132.660156 Z M 17.160156 17.160156 " clip-rule="nonzero"/></clipPath></defs><g clip-path="url(#108f778eed)"><path fill="#ff1616" d="M 74.910156 17.148438 C 43.058594 17.148438 17.148438 43.0625 17.148438 74.910156 C 17.148438 106.761719 43.0625 132.671875 74.910156 132.671875 C 106.761719 132.671875 132.671875 106.761719 132.671875 74.910156 C 132.671875 43.0625 106.761719 17.148438 74.910156 17.148438 Z M 80.035156 108.71875 C 78.441406 110.136719 76.554688 110.855469 74.425781 110.855469 C 72.277344 110.855469 70.375 110.148438 68.769531 108.753906 C 67.085938 107.292969 66.230469 105.273438 66.230469 102.746094 C 66.230469 100.519531 67.023438 98.597656 68.589844 97.03125 C 70.152344 95.46875 72.089844 94.675781 74.34375 94.675781 C 76.585938 94.675781 78.53125 95.464844 80.121094 97.015625 C 81.726562 98.585938 82.539062 100.511719 82.539062 102.746094 C 82.539062 105.234375 81.695312 107.246094 80.035156 108.71875 Z M 82.238281 61.457031 L 80.453125 81.898438 C 80.238281 84.585938 79.773438 86.640625 79.023438 88.167969 C 78.074219 90.109375 76.351562 91.175781 74.175781 91.175781 C 71.953125 91.175781 70.238281 90.117188 69.351562 88.191406 C 68.675781 86.726562 68.214844 84.648438 67.941406 81.832031 L 66.609375 61.890625 C 66.359375 57.992188 66.230469 55.144531 66.230469 53.417969 C 66.230469 50.640625 67.007812 48.398438 68.546875 46.753906 C 70.113281 45.078125 72.175781 44.226562 74.675781 44.226562 C 78.597656 44.226562 80.359375 46.148438 81.144531 47.757812 C 82.082031 49.683594 82.539062 52.28125 82.539062 55.703125 C 82.539062 57.582031 82.4375 59.515625 82.238281 61.457031 Z M 82.238281 61.457031 " fill-opacity="1" fill-rule="nonzero"/></g></svg>