<svg xmlns="http://www.w3.org/2000/svg" xmlns:xlink="http://www.w3.org/1999/xlink" width="500" zoomAndPan="magnify" viewBox="0 0 375 374.999991" height="500" preserveAspectRatio="xMidYMid meet" version="1.0"><defs><clipPath id="b850c4cdba"><path d="M 78 86.171875 L 226 86.171875 L 226 288.671875 L 78 288.671875 Z M 78 86.171875 " clip-rule="nonzero"/></clipPath></defs><path fill="#000000" d="M 187.5 0 C 83.945312 0 0 83.945312 0 187.5 C 0 291.054688 83.945312 375 187.5 375 C 291.054688 375 375 291.054688 375 187.5 C 375 83.945312 291.054688 0 187.5 0 " fill-opacity="1" fill-rule="nonzero"/><path fill="#ffffff" d="M 164.820312 217.796875 L 239.863281 217.796875 L 239.863281 244.121094 C 239.863281 244.722656 239.953125 245.308594 240.128906 245.882812 C 240.300781 246.457031 240.558594 246.996094 240.890625 247.492188 C 241.226562 247.992188 241.625 248.433594 242.089844 248.8125 C 242.554688 249.195312 243.066406 249.5 243.621094 249.730469 C 244.175781 249.957031 244.753906 250.101562 245.351562 250.160156 C 245.949219 250.222656 246.542969 250.191406 247.132812 250.074219 C 247.722656 249.957031 248.285156 249.757812 248.816406 249.476562 C 249.34375 249.191406 249.824219 248.839844 250.25 248.414062 L 307.039062 191.714844 C 307.320312 191.433594 307.574219 191.125 307.796875 190.792969 C 308.019531 190.460938 308.207031 190.113281 308.359375 189.742188 C 308.511719 189.375 308.625 188.996094 308.703125 188.605469 C 308.78125 188.214844 308.820312 187.816406 308.820312 187.417969 C 308.820312 187.019531 308.78125 186.625 308.703125 186.234375 C 308.625 185.84375 308.511719 185.464844 308.359375 185.09375 C 308.207031 184.726562 308.019531 184.375 307.796875 184.042969 C 307.574219 183.710938 307.320312 183.40625 307.039062 183.125 L 250.25 126.421875 C 249.816406 126.011719 249.332031 125.667969 248.800781 125.394531 C 248.269531 125.117188 247.710938 124.921875 247.125 124.804688 C 246.539062 124.6875 245.945312 124.65625 245.347656 124.707031 C 244.753906 124.757812 244.175781 124.890625 243.617188 125.105469 C 243.0625 125.335938 242.550781 125.644531 242.085938 126.023438 C 241.621094 126.40625 241.222656 126.847656 240.886719 127.34375 C 240.554688 127.84375 240.300781 128.382812 240.125 128.957031 C 239.949219 129.53125 239.863281 130.121094 239.863281 130.722656 L 239.863281 157.046875 L 164.820312 157.046875 C 164.421875 157.046875 164.023438 157.085938 163.632812 157.164062 C 163.242188 157.242188 162.859375 157.355469 162.492188 157.507812 C 162.121094 157.660156 161.769531 157.847656 161.4375 158.070312 C 161.105469 158.292969 160.800781 158.542969 160.515625 158.824219 C 160.234375 159.109375 159.980469 159.414062 159.761719 159.746094 C 159.539062 160.078125 159.351562 160.429688 159.199219 160.796875 C 159.046875 161.164062 158.929688 161.546875 158.851562 161.9375 C 158.773438 162.328125 158.734375 162.722656 158.734375 163.121094 L 158.734375 211.722656 C 158.734375 212.121094 158.773438 212.515625 158.851562 212.90625 C 158.929688 213.296875 159.046875 213.675781 159.199219 214.046875 C 159.351562 214.414062 159.539062 214.765625 159.761719 215.097656 C 159.980469 215.429688 160.234375 215.734375 160.515625 216.015625 C 160.800781 216.300781 161.105469 216.550781 161.4375 216.773438 C 161.769531 216.996094 162.121094 217.179688 162.492188 217.335938 C 162.859375 217.488281 163.242188 217.601562 163.632812 217.679688 C 164.023438 217.757812 164.421875 217.796875 164.820312 217.796875 Z M 164.820312 217.796875 " fill-opacity="1" fill-rule="nonzero"/><g clip-path="url(#b850c4cdba)"><path fill="#ffffff" d="M 188.398438 288.671875 L 115.347656 288.671875 C 114.140625 288.683594 112.9375 288.632812 111.734375 288.527344 C 110.53125 288.421875 109.335938 288.253906 108.148438 288.03125 C 106.960938 287.804688 105.789062 287.523438 104.628906 287.1875 C 103.46875 286.847656 102.332031 286.453125 101.210938 286 C 100.089844 285.550781 98.996094 285.046875 97.921875 284.488281 C 96.851562 283.929688 95.8125 283.320312 94.800781 282.660156 C 93.789062 282.003906 92.8125 281.292969 91.871094 280.539062 C 90.929688 279.785156 90.027344 278.984375 89.167969 278.140625 C 88.304688 277.296875 87.484375 276.410156 86.707031 275.488281 C 85.933594 274.5625 85.203125 273.605469 84.523438 272.609375 C 83.839844 271.613281 83.210938 270.585938 82.628906 269.527344 C 82.046875 268.472656 81.519531 267.390625 81.046875 266.28125 C 80.570312 265.171875 80.152344 264.042969 79.789062 262.890625 C 79.425781 261.742188 79.121094 260.574219 78.871094 259.394531 C 78.621094 258.214844 78.429688 257.027344 78.300781 255.828125 C 78.167969 254.628906 78.09375 253.425781 78.082031 252.222656 L 78.082031 122.621094 C 78.09375 121.414062 78.167969 120.214844 78.300781 119.015625 C 78.429688 117.816406 78.621094 116.625 78.871094 115.445312 C 79.121094 114.265625 79.425781 113.101562 79.789062 111.953125 C 80.152344 110.800781 80.570312 109.671875 81.046875 108.5625 C 81.519531 107.453125 82.046875 106.371094 82.628906 105.3125 C 83.210938 104.257812 83.839844 103.230469 84.523438 102.234375 C 85.203125 101.238281 85.933594 100.277344 86.707031 99.355469 C 87.484375 98.429688 88.304688 97.546875 89.167969 96.703125 C 90.027344 95.859375 90.929688 95.058594 91.871094 94.304688 C 92.8125 93.546875 93.789062 92.839844 94.800781 92.179688 C 95.8125 91.519531 96.851562 90.914062 97.921875 90.355469 C 98.996094 89.796875 100.089844 89.292969 101.210938 88.839844 C 102.332031 88.390625 103.46875 87.996094 104.628906 87.65625 C 105.789062 87.316406 106.960938 87.035156 108.148438 86.8125 C 109.335938 86.589844 110.53125 86.421875 111.734375 86.316406 C 112.9375 86.207031 114.140625 86.160156 115.347656 86.171875 L 188.398438 86.171875 C 189.605469 86.160156 190.8125 86.207031 192.015625 86.316406 C 193.21875 86.421875 194.414062 86.589844 195.597656 86.8125 C 196.785156 87.035156 197.957031 87.316406 199.117188 87.65625 C 200.277344 87.996094 201.417969 88.390625 202.535156 88.839844 C 203.65625 89.292969 204.753906 89.796875 205.824219 90.355469 C 206.894531 90.914062 207.933594 91.519531 208.945312 92.179688 C 209.957031 92.839844 210.933594 93.546875 211.875 94.304688 C 212.816406 95.058594 213.71875 95.859375 214.582031 96.703125 C 215.445312 97.546875 216.261719 98.429688 217.039062 99.355469 C 217.816406 100.277344 218.542969 101.238281 219.226562 102.234375 C 219.90625 103.230469 220.539062 104.257812 221.117188 105.3125 C 221.699219 106.371094 222.226562 107.453125 222.703125 108.5625 C 223.175781 109.671875 223.59375 110.800781 223.957031 111.953125 C 224.320312 113.101562 224.628906 114.265625 224.875 115.445312 C 225.125 116.625 225.316406 117.816406 225.449219 119.015625 C 225.578125 120.214844 225.652344 121.414062 225.667969 122.621094 L 225.667969 130.722656 C 225.667969 131.519531 225.589844 132.308594 225.433594 133.09375 C 225.277344 133.875 225.046875 134.632812 224.742188 135.371094 C 224.433594 136.109375 224.058594 136.808594 223.617188 137.472656 C 223.171875 138.136719 222.667969 138.75 222.101562 139.3125 C 221.539062 139.875 220.921875 140.378906 220.257812 140.824219 C 219.59375 141.265625 218.890625 141.640625 218.152344 141.945312 C 217.417969 142.25 216.65625 142.480469 215.871094 142.636719 C 215.085938 142.792969 214.296875 142.871094 213.496094 142.871094 C 212.699219 142.871094 211.90625 142.792969 211.125 142.636719 C 210.339844 142.480469 209.578125 142.25 208.839844 141.945312 C 208.101562 141.640625 207.402344 141.265625 206.734375 140.824219 C 206.070312 140.378906 205.457031 139.875 204.890625 139.3125 C 204.328125 138.75 203.824219 138.136719 203.378906 137.472656 C 202.933594 136.808594 202.558594 136.109375 202.253906 135.371094 C 201.949219 134.632812 201.71875 133.875 201.5625 133.09375 C 201.40625 132.308594 201.328125 131.519531 201.328125 130.722656 L 201.328125 122.621094 C 201.300781 121.800781 201.195312 120.988281 201.007812 120.1875 C 200.820312 119.386719 200.558594 118.609375 200.21875 117.859375 C 199.882812 117.109375 199.472656 116.398438 198.992188 115.730469 C 198.515625 115.0625 197.976562 114.445312 197.375 113.878906 C 196.777344 113.316406 196.128906 112.816406 195.429688 112.378906 C 194.730469 111.945312 193.996094 111.578125 193.226562 111.285156 C 192.457031 110.996094 191.664062 110.78125 190.851562 110.640625 C 190.039062 110.503906 189.222656 110.449219 188.398438 110.472656 L 115.347656 110.472656 C 114.527344 110.449219 113.707031 110.503906 112.894531 110.640625 C 112.082031 110.78125 111.292969 110.996094 110.519531 111.285156 C 109.75 111.578125 109.015625 111.945312 108.320312 112.378906 C 107.621094 112.816406 106.972656 113.316406 106.371094 113.878906 C 105.769531 114.445312 105.230469 115.0625 104.753906 115.730469 C 104.273438 116.398438 103.867188 117.109375 103.527344 117.859375 C 103.1875 118.609375 102.925781 119.386719 102.738281 120.1875 C 102.550781 120.988281 102.445312 121.800781 102.417969 122.621094 L 102.417969 252.222656 C 102.445312 253.042969 102.550781 253.855469 102.738281 254.65625 C 102.925781 255.457031 103.1875 256.234375 103.527344 256.984375 C 103.867188 257.734375 104.273438 258.441406 104.753906 259.113281 C 105.230469 259.78125 105.769531 260.398438 106.371094 260.960938 C 106.972656 261.527344 107.621094 262.027344 108.320312 262.460938 C 109.015625 262.898438 109.75 263.261719 110.519531 263.554688 C 111.292969 263.847656 112.082031 264.0625 112.894531 264.199219 C 113.707031 264.335938 114.527344 264.394531 115.347656 264.371094 L 188.398438 264.371094 C 189.222656 264.394531 190.039062 264.335938 190.851562 264.199219 C 191.664062 264.0625 192.457031 263.847656 193.226562 263.554688 C 193.996094 263.265625 194.730469 262.898438 195.429688 262.464844 C 196.128906 262.027344 196.777344 261.527344 197.375 260.960938 C 197.976562 260.398438 198.515625 259.78125 198.996094 259.113281 C 199.472656 258.441406 199.882812 257.734375 200.21875 256.984375 C 200.558594 256.234375 200.820312 255.457031 201.007812 254.65625 C 201.195312 253.855469 201.300781 253.042969 201.328125 252.222656 L 201.328125 244.121094 C 201.328125 243.324219 201.40625 242.535156 201.5625 241.75 C 201.71875 240.96875 201.949219 240.207031 202.253906 239.472656 C 202.558594 238.734375 202.933594 238.035156 203.378906 237.371094 C 203.824219 236.707031 204.328125 236.09375 204.890625 235.53125 C 205.457031 234.964844 206.070312 234.460938 206.734375 234.019531 C 207.402344 233.574219 208.101562 233.203125 208.839844 232.894531 C 209.578125 232.589844 210.339844 232.359375 211.125 232.203125 C 211.90625 232.050781 212.699219 231.972656 213.496094 231.972656 C 214.296875 231.972656 215.085938 232.050781 215.871094 232.203125 C 216.65625 232.359375 217.417969 232.589844 218.152344 232.894531 C 218.890625 233.203125 219.59375 233.574219 220.257812 234.019531 C 220.921875 234.460938 221.539062 234.964844 222.101562 235.53125 C 222.667969 236.09375 223.171875 236.707031 223.617188 237.371094 C 224.058594 238.035156 224.433594 238.734375 224.742188 239.472656 C 225.046875 240.207031 225.277344 240.96875 225.433594 241.75 C 225.589844 242.535156 225.667969 243.324219 225.667969 244.121094 L 225.667969 252.222656 C 225.652344 253.425781 225.578125 254.628906 225.449219 255.828125 C 225.316406 257.027344 225.125 258.214844 224.875 259.394531 C 224.628906 260.574219 224.320312 261.742188 223.957031 262.890625 C 223.59375 264.042969 223.175781 265.171875 222.703125 266.28125 C 222.226562 267.390625 221.699219 268.472656 221.117188 269.527344 C 220.539062 270.585938 219.90625 271.613281 219.226562 272.609375 C 218.542969 273.605469 217.816406 274.5625 217.039062 275.488281 C 216.261719 276.410156 215.445312 277.296875 214.582031 278.140625 C 213.71875 278.984375 212.816406 279.785156 211.875 280.539062 C 210.933594 281.292969 209.957031 282.003906 208.945312 282.660156 C 207.933594 283.320312 206.894531 283.929688 205.824219 284.488281 C 204.753906 285.046875 203.65625 285.550781 202.535156 286 C 201.417969 286.453125 200.277344 286.847656 199.117188 287.1875 C 197.957031 287.523438 196.785156 287.804688 195.597656 288.03125 C 194.414062 288.253906 193.21875 288.421875 192.015625 288.527344 C 190.8125 288.632812 189.605469 288.683594 188.398438 288.671875 Z M 188.398438 288.671875 " fill-opacity="1" fill-rule="nonzero"/></g></svg>