<svg xmlns="http://www.w3.org/2000/svg" xmlns:xlink="http://www.w3.org/1999/xlink" width="500" zoomAndPan="magnify" viewBox="0 0 375 374.999991" height="500" preserveAspectRatio="xMidYMid meet" version="1.0"><defs><clipPath id="49eb4ef429"><path d="M 74.601562 113.128906 L 300.351562 113.128906 L 300.351562 261.628906 L 74.601562 261.628906 Z M 74.601562 113.128906 " clip-rule="nonzero"/></clipPath></defs><rect x="-37.5" width="450" fill="#ffffff" y="-37.499999" height="449.999989" fill-opacity="1"/><rect x="-37.5" width="450" fill="#ffffff" y="-37.499999" height="449.999989" fill-opacity="1"/><rect x="-37.5" width="450" fill="#f1f1f1" y="-37.499999" height="449.999989" fill-opacity="1"/><g clip-path="url(#49eb4ef429)"><path fill="#000000" d="M 289.167969 261.59375 L 85.738281 261.59375 C 79.589844 261.59375 74.585938 256.597656 74.585938 250.453125 L 74.585938 124.347656 C 74.585938 118.203125 79.589844 113.207031 85.738281 113.207031 L 289.167969 113.207031 C 295.316406 113.207031 300.320312 118.203125 300.320312 124.347656 L 300.320312 250.453125 C 300.320312 256.597656 295.316406 261.59375 289.167969 261.59375 Z M 85.738281 122.265625 C 84.589844 122.265625 83.65625 123.199219 83.65625 124.347656 L 83.65625 250.453125 C 83.65625 251.601562 84.589844 252.535156 85.738281 252.535156 L 289.167969 252.535156 C 290.316406 252.535156 291.25 251.601562 291.25 250.453125 L 291.25 124.347656 C 291.25 123.199219 290.316406 122.265625 289.167969 122.265625 Z M 85.738281 122.265625 " fill-opacity="1" fill-rule="nonzero"/></g><path fill="#000000" d="M 273.070312 185.953125 L 245.859375 185.953125 C 240.550781 185.953125 236.234375 181.644531 236.234375 176.34375 L 236.234375 141.628906 C 236.234375 136.328125 240.550781 132.019531 245.859375 132.019531 L 273.070312 132.019531 C 278.375 132.019531 282.691406 136.328125 282.691406 141.628906 L 282.691406 176.34375 C 282.691406 181.644531 278.375 185.953125 273.070312 185.953125 Z M 245.859375 141.074219 C 245.550781 141.074219 245.300781 141.320312 245.300781 141.628906 L 245.300781 176.34375 C 245.300781 176.648438 245.550781 176.898438 245.859375 176.898438 L 273.070312 176.898438 C 273.375 176.898438 273.625 176.648438 273.625 176.34375 L 273.625 141.628906 C 273.625 141.320312 273.375 141.074219 273.070312 141.074219 Z M 245.859375 141.074219 " fill-opacity="1" fill-rule="nonzero"/><path fill="#000000" d="M 165.085938 202.558594 L 96.746094 202.558594 C 94.242188 202.558594 92.214844 200.53125 92.214844 198.03125 C 92.214844 195.527344 94.242188 193.5 96.746094 193.5 L 165.085938 193.5 C 167.589844 193.5 169.617188 195.527344 169.617188 198.03125 C 169.617188 200.53125 167.589844 202.558594 165.085938 202.558594 Z M 165.085938 202.558594 " fill-opacity="1" fill-rule="nonzero"/><path fill="#000000" d="M 165.085938 222.671875 L 96.746094 222.671875 C 94.242188 222.671875 92.214844 220.644531 92.214844 218.140625 C 92.214844 215.640625 94.242188 213.613281 96.746094 213.613281 L 165.085938 213.613281 C 167.589844 213.613281 169.617188 215.640625 169.617188 218.140625 C 169.617188 220.644531 167.589844 222.671875 165.085938 222.671875 Z M 165.085938 222.671875 " fill-opacity="1" fill-rule="nonzero"/><path fill="#000000" d="M 127.945312 242.78125 L 96.746094 242.78125 C 94.242188 242.78125 92.214844 240.753906 92.214844 238.253906 C 92.214844 235.753906 94.242188 233.726562 96.746094 233.726562 L 127.945312 233.726562 C 130.449219 233.726562 132.480469 235.753906 132.480469 238.253906 C 132.480469 240.753906 130.449219 242.78125 127.945312 242.78125 Z M 127.945312 242.78125 " fill-opacity="1" fill-rule="nonzero"/></svg>