<?xml version="1.0" encoding="utf-8"?>
<!-- Svg Vector Icons : http://www.onlinewebfonts.com/icon -->
<!DOCTYPE svg PUBLIC "-//W3C//DTD SVG 1.1//EN" "http://www.w3.org/Graphics/SVG/1.1/DTD/svg11.dtd">
<svg version="1.1" xmlns="http://www.w3.org/2000/svg" xmlns:xlink="http://www.w3.org/1999/xlink" x="0px" y="0px" viewBox="0 0 1000 1000" enable-background="new 0 0 1000 1000" xml:space="preserve">
<metadata> Svg Vector Icons : http://www.onlinewebfonts.com/icon </metadata>
<g><g transform="translate(0.000000,511.000000) scale(0.100000,-0.100000)"><path d="M4632.3,4996.8C3393.7,4879.4,2376,4409.7,1538,3571.7C53,2086.7-324.6-183.4,605.6-2050.5C1561-3972.9,3614.7-5050.4,5725.9-4737.3C7846.3-4421.9,9531.6-2736.6,9847-616.2c253.3,1710.6-412.1,3425.8-1754.4,4526.3c-584.8,481.2-1365.3,849.5-2108.9,996.9C5534.8,4996.8,4998.4,5033.7,4632.3,4996.8z M7077.3,2712.9c453.6-156.6,750.5-640,667.7-1086.7c-13.8-73.7-52.9-200.3-87.5-278.6c-57.6-133.5-161.2-244-1342.3-1429.7L5035.2-1364.4L4333-662.2L3630.8,40L4885.5,1297c695.3,693,1300.8,1282.4,1358.4,1316.9C6492.5,2761.3,6821.8,2800.4,7077.3,2712.9z M3653.8-1341.4c428.2-428.2,681.5-697.6,667.7-711.4c-20.7-18.4-2028.3-693-2065.2-693c-6.9,0,142.7,472,333.8,1047.5c193.4,575.6,354.6,1047.5,361.5,1047.5C2958.5-650.7,3273.9-961.5,3653.8-1341.4z"/></g></g>
</svg>