<svg xmlns="http://www.w3.org/2000/svg" xmlns:xlink="http://www.w3.org/1999/xlink" width="500" zoomAndPan="magnify" viewBox="0 0 375 374.999991" height="500" preserveAspectRatio="xMidYMid meet" version="1.0"><defs><clipPath id="3b7e03236f"><path d="M 69 23 L 305.914062 23 L 305.914062 157 L 69 157 Z M 69 23 " clip-rule="nonzero"/></clipPath></defs><path fill="#000000" d="M 187.289062 2.0625 C 84.992188 2.0625 2.0625 84.992188 2.0625 187.289062 C 2.0625 289.589844 84.992188 372.519531 187.289062 372.519531 C 289.589844 372.519531 372.519531 289.589844 372.519531 187.289062 C 372.519531 84.992188 289.589844 2.0625 187.289062 2.0625 Z M 187.289062 92.644531 C 223.921875 92.644531 253.726562 122.453125 253.726562 159.082031 C 253.726562 195.714844 223.921875 225.519531 187.289062 225.519531 C 150.65625 225.519531 120.855469 195.714844 120.855469 159.082031 C 120.855469 122.453125 150.65625 92.644531 187.289062 92.644531 Z M 187.289062 347.175781 C 141.457031 347.175781 100.34375 327.070312 72.214844 295.21875 C 85.289062 271.550781 105.734375 252.097656 130.046875 240.304688 C 138.316406 236.292969 147.96875 236.359375 156.535156 240.472656 C 166.179688 245.105469 176.527344 247.453125 187.292969 247.453125 C 198.058594 247.453125 208.410156 245.101562 218.054688 240.472656 C 226.628906 236.355469 236.28125 236.292969 244.542969 240.304688 C 268.851562 252.09375 289.292969 271.550781 302.371094 295.21875 C 274.238281 327.066406 233.125 347.175781 187.289062 347.175781 Z M 187.289062 347.175781 " fill-opacity="1" fill-rule="nonzero"/><path fill="#ffffff" d="M 297.996094 89.421875 C 300.484375 99.933594 299.214844 107.539062 285.371094 115.300781 C 277.207031 119.875 270.964844 122.113281 267.308594 123.164062 C 267.855469 119.351562 268.226562 116.621094 268.226562 115.601562 C 268.226562 113.199219 261.664062 107.40625 247.324219 102.449219 C 254.3125 99.585938 263.902344 98.101562 264.015625 98.082031 L 263.972656 95.648438 C 262.652344 95.492188 261.257812 95.410156 259.816406 95.410156 C 251.390625 95.410156 242.804688 97.988281 238.054688 99.6875 C 232.820312 98.347656 226.867188 97.164062 220.160156 96.234375 C 224.378906 91.277344 230.417969 83.5625 230.746094 83.136719 L 233.546875 79.5625 L 229.324219 81.242188 C 222.570312 83.921875 215.164062 91.496094 211.746094 95.265625 C 209.308594 95.03125 206.789062 94.832031 204.179688 94.679688 C 200.949219 94.484375 197.683594 94.378906 194.507812 94.378906 C 184.226562 94.378906 175.152344 95.378906 167.328125 96.851562 C 163.960938 91.980469 155.726562 80.5625 149.730469 76.359375 L 147.933594 77.921875 C 148.261719 78.5625 155.121094 91.742188 160.796875 98.246094 C 157.660156 98.996094 154.777344 99.820312 152.152344 100.667969 C 148.824219 99.316406 142.433594 97.214844 134.949219 97.214844 C 128.433594 97.214844 122.492188 98.820312 117.308594 101.996094 L 118.351562 104.199219 C 118.414062 104.179688 124.296875 102.183594 132.109375 102.183594 C 136.1875 102.183594 140.027344 102.726562 143.589844 103.789062 C 136.921875 106.5625 133.253906 108.933594 132.894531 109.167969 L 129.992188 111.085938 L 133.464844 111.414062 C 133.648438 111.425781 133.84375 111.433594 134.050781 111.433594 C 136.085938 111.433594 138.703125 110.589844 142.667969 109.300781 C 151.824219 106.324219 167.152344 101.335938 193.09375 101.335938 C 194.371094 101.335938 195.683594 101.347656 197.003906 101.378906 C 234.824219 102.089844 258.203125 115.785156 260.898438 118.113281 C 260.816406 119.042969 260.578125 121.378906 260.3125 123.996094 C 259.722656 129.664062 258.84375 138.15625 258.132812 146.226562 C 249.597656 143.21875 225.441406 135.878906 192.207031 135.417969 C 191.078125 135.40625 189.964844 135.394531 188.847656 135.394531 C 153.582031 135.394531 128.621094 143.15625 118.050781 149.378906 C 116.753906 145.226562 115.511719 142.175781 114.632812 140.25 C 123.230469 135.808594 125.925781 131.726562 126.058594 131.511719 L 128.15625 128.191406 L 124.53125 129.726562 C 107.933594 136.746094 99.246094 139.484375 93.515625 139.484375 C 87.097656 139.484375 84.371094 135.765625 81.304688 128.449219 C 75.398438 114.339844 75.542969 111.035156 82.800781 93.070312 C 90.285156 74.542969 98.605469 55.972656 110.660156 50.273438 C 114.148438 48.625 118.339844 47.78125 123.097656 47.78125 C 128.25 47.78125 133 48.769531 135.960938 49.5625 C 127.910156 57.746094 124.039062 64.3125 123.769531 64.773438 L 125.75 66.195312 C 125.988281 65.9375 149.070312 40.105469 172.472656 32.765625 C 177.382812 31.21875 182.132812 30.4375 186.589844 30.4375 C 195.5 30.4375 201.421875 33.582031 204.417969 35.714844 C 197.109375 39.609375 193.609375 43.226562 193.351562 43.492188 L 194.828125 45.421875 C 209.691406 37.339844 227.847656 32.703125 244.628906 32.703125 C 258.710938 32.703125 269.917969 35.980469 274.613281 41.464844 C 284.578125 53.089844 282.726562 75.296875 282.710938 75.511719 L 282.328125 79.777344 L 284.90625 76.367188 C 285.847656 75.121094 286.527344 73.058594 286.960938 70.503906 C 290.355469 74.285156 296.140625 81.59375 297.996094 89.421875 Z M 297.996094 89.421875 " fill-opacity="1" fill-rule="nonzero"/><g clip-path="url(#3b7e03236f)"><path fill="#000000" d="M 142.671875 109.300781 C 138.703125 110.589844 136.085938 111.433594 134.050781 111.433594 C 133.84375 111.433594 133.648438 111.425781 133.464844 111.414062 L 129.992188 111.085938 L 132.894531 109.167969 C 133.253906 108.933594 136.921875 106.5625 143.589844 103.789062 C 140.027344 102.726562 136.1875 102.183594 132.109375 102.183594 C 124.296875 102.183594 118.414062 104.179688 118.351562 104.199219 L 117.308594 101.996094 C 122.492188 98.820312 128.4375 97.214844 134.949219 97.214844 C 142.433594 97.214844 148.824219 99.316406 152.152344 100.667969 C 154.777344 99.820312 157.660156 98.996094 160.796875 98.246094 C 155.121094 91.742188 148.261719 78.5625 147.933594 77.921875 L 149.730469 76.359375 C 155.726562 80.5625 163.960938 91.980469 167.332031 96.851562 C 175.15625 95.378906 184.230469 94.378906 194.507812 94.378906 C 197.683594 94.378906 200.949219 94.484375 204.179688 94.679688 C 206.789062 94.832031 209.308594 95.03125 211.746094 95.265625 C 215.164062 91.496094 222.570312 83.921875 229.324219 81.242188 L 233.546875 79.5625 L 230.746094 83.136719 C 230.417969 83.5625 224.378906 91.277344 220.160156 96.234375 C 226.867188 97.164062 232.820312 98.347656 238.054688 99.6875 C 242.804688 97.988281 251.390625 95.410156 259.816406 95.410156 C 261.261719 95.410156 262.652344 95.492188 263.972656 95.648438 L 264.015625 98.082031 C 263.902344 98.101562 254.3125 99.585938 247.324219 102.449219 C 261.664062 107.40625 268.226562 113.199219 268.226562 115.601562 C 268.226562 116.621094 267.855469 119.351562 267.308594 123.164062 C 270.964844 122.113281 277.207031 119.875 285.371094 115.300781 C 299.214844 107.539062 300.484375 99.933594 297.996094 89.421875 C 296.140625 81.59375 290.355469 74.285156 286.960938 70.503906 C 286.527344 73.058594 285.847656 75.121094 284.90625 76.367188 L 282.328125 79.777344 L 282.710938 75.511719 C 282.726562 75.296875 284.578125 53.089844 274.613281 41.464844 C 269.917969 35.980469 258.710938 32.703125 244.628906 32.703125 C 227.847656 32.703125 209.691406 37.339844 194.828125 45.421875 L 193.351562 43.492188 C 193.609375 43.226562 197.109375 39.609375 204.417969 35.714844 C 201.421875 33.582031 195.5 30.4375 186.589844 30.4375 C 182.132812 30.4375 177.382812 31.21875 172.472656 32.765625 C 149.070312 40.105469 125.988281 65.9375 125.753906 66.195312 L 123.769531 64.773438 C 124.039062 64.3125 127.910156 57.746094 135.960938 49.5625 C 133 48.769531 128.25 47.78125 123.101562 47.78125 C 118.339844 47.78125 114.148438 48.625 110.660156 50.273438 C 98.605469 55.972656 90.285156 74.542969 82.800781 93.070312 C 75.542969 111.035156 75.398438 114.339844 81.304688 128.449219 C 84.371094 135.765625 87.097656 139.484375 93.515625 139.484375 C 99.246094 139.484375 107.933594 136.746094 124.53125 129.726562 L 128.15625 128.191406 L 126.058594 131.511719 C 125.925781 131.726562 123.230469 135.808594 114.632812 140.25 C 115.511719 142.175781 116.753906 145.226562 118.050781 149.378906 C 128.621094 143.15625 153.582031 135.394531 188.847656 135.394531 C 189.964844 135.394531 191.078125 135.40625 192.207031 135.417969 C 225.441406 135.878906 249.59375 143.21875 258.132812 146.226562 C 258.84375 138.15625 259.722656 129.664062 260.3125 123.996094 C 260.578125 121.378906 260.816406 119.042969 260.898438 118.113281 C 258.203125 115.785156 234.824219 102.089844 197.003906 101.378906 C 195.683594 101.347656 194.371094 101.335938 193.09375 101.335938 C 167.152344 101.335938 151.828125 106.324219 142.671875 109.300781 Z M 287.507812 64.816406 C 302.765625 78.613281 305.789062 96.007812 305.625 101.152344 C 305.441406 107.148438 300.183594 112.804688 285.558594 122.792969 C 276.796875 128.769531 270.136719 130.394531 266.195312 130.738281 C 265.335938 136.640625 264.40625 143.320312 263.757812 149.523438 C 262.828125 158.285156 254.5 152.070312 249.234375 150.132812 C 241.65625 147.359375 234.019531 145.214844 226.082031 143.671875 C 213.5 141.21875 200.5625 139.890625 187.746094 140.136719 C 169.753906 140.476562 149.378906 143.359375 132.59375 149.996094 C 130.875 150.675781 113.417969 156.832031 113.417969 156.871094 C 111.929688 151.222656 110.257812 145.96875 108.925781 142.847656 C 108.304688 143.09375 107.6875 143.339844 107.027344 143.585938 C 100.289062 146.101562 95.003906 147.320312 90.863281 147.320312 C 86.695312 147.320312 83.515625 146.058594 81.128906 143.464844 C 77.210938 139.1875 68.835938 118.382812 69.835938 112.113281 C 70.835938 105.890625 87.300781 57.726562 102.402344 48.132812 C 107.71875 44.75 114.769531 43.03125 123.355469 43.03125 C 130.714844 43.03125 137.28125 44.285156 140.65625 45.070312 C 145.722656 40.492188 152 35.683594 159.566406 31.300781 C 168.714844 26.015625 178.238281 23.335938 187.902344 23.335938 C 199.339844 23.335938 208.574219 27.253906 213.59375 31.621094 C 218.503906 29.808594 224.371094 28.179688 231.265625 27.097656 C 236.445312 26.285156 241.597656 25.871094 246.550781 25.871094 C 263.851562 25.871094 278.476562 31.023438 282.949219 38.703125 C 286.1875 44.265625 287.847656 55.757812 287.507812 64.816406 Z M 287.507812 64.816406 " fill-opacity="1" fill-rule="nonzero"/></g></svg>