<svg xmlns="http://www.w3.org/2000/svg" xmlns:xlink="http://www.w3.org/1999/xlink" width="500" zoomAndPan="magnify" viewBox="0 0 375 374.999991" height="500" preserveAspectRatio="xMidYMid meet" version="1.0"><defs><clipPath id="92b8c60dad"><path d="M 119 88.90625 L 256 88.90625 L 256 286.15625 L 119 286.15625 Z M 119 88.90625 " clip-rule="nonzero"/></clipPath></defs><rect x="-37.5" width="450" fill="#ffffff" y="-37.499999" height="449.999989" fill-opacity="1"/><rect x="-37.5" width="450" fill="#f1f1f1" y="-37.499999" height="449.999989" fill-opacity="1"/><g clip-path="url(#92b8c60dad)"><path fill="#000000" d="M 187.484375 88.90625 C 158.882812 88.90625 135.613281 112.1875 135.613281 140.800781 L 135.613281 170.296875 C 126.535156 172.058594 119.65625 180.054688 119.65625 189.644531 L 119.65625 266.429688 C 119.65625 277.308594 128.5 286.15625 139.371094 286.15625 L 235.597656 286.15625 C 246.46875 286.15625 255.308594 277.308594 255.308594 266.429688 L 255.308594 189.644531 C 255.308594 180.054688 248.429688 172.058594 239.351562 170.296875 L 239.351562 140.800781 C 239.351562 112.1875 216.082031 88.90625 187.484375 88.90625 Z M 148.757812 140.800781 C 148.757812 119.4375 166.128906 102.054688 187.484375 102.054688 C 208.839844 102.054688 226.210938 119.4375 226.210938 140.800781 L 226.210938 169.917969 L 148.757812 169.917969 Z M 242.167969 189.644531 L 242.167969 266.429688 C 242.167969 270.054688 239.21875 273.003906 235.597656 273.003906 L 139.371094 273.003906 C 135.75 273.003906 132.800781 270.054688 132.800781 266.429688 L 132.800781 189.644531 C 132.800781 186.019531 135.75 183.066406 139.371094 183.066406 L 235.597656 183.066406 C 239.21875 183.066406 242.167969 186.019531 242.167969 189.644531 Z M 242.167969 189.644531 " fill-opacity="1" fill-rule="nonzero"/></g><path fill="#000000" d="M 187.484375 199.183594 C 174.480469 199.183594 163.894531 209.773438 163.894531 222.785156 C 163.894531 233.5 171.117188 242.464844 180.910156 245.332031 L 180.910156 250.316406 C 180.910156 253.949219 183.855469 256.890625 187.484375 256.890625 C 191.113281 256.890625 194.054688 253.949219 194.054688 250.316406 L 194.054688 245.332031 C 203.851562 242.464844 211.070312 233.5 211.070312 222.785156 C 211.070312 209.773438 200.488281 199.183594 187.484375 199.183594 Z M 187.484375 233.230469 C 181.722656 233.230469 177.039062 228.542969 177.039062 222.785156 C 177.039062 217.019531 181.722656 212.335938 187.484375 212.335938 C 193.242188 212.335938 197.929688 217.019531 197.929688 222.785156 C 197.929688 228.542969 193.242188 233.230469 187.484375 233.230469 Z M 187.484375 233.230469 " fill-opacity="1" fill-rule="nonzero"/></svg>